HIERARCHY
ROOT Hips
{
	OFFSET 0.000000 0.000000 0.000000 
	CHANNELS 6 Xposition Yposition Zposition Yrotation Zrotation Xrotation 
	JOINT Lumbar
	{
		OFFSET 0.000000 0.000000 0.000000 
		CHANNELS 3 Zrotation Xrotation Yrotation
		JOINT Neck
		{
			OFFSET 0.000000 0.445665 0.000000 
			CHANNELS 3 Zrotation Xrotation Yrotation
			End Site
			{
				OFFSET 0.000000 0.227535 0.000000 
			}
		}
		JOINT RightShoulder
		{
			OFFSET 0.019635 0.377685 0.194865 
			CHANNELS 3 Zrotation Xrotation Yrotation
			JOINT RightElbow
			{
				OFFSET 0.000000 -0.243375 0.000000 
				CHANNELS 2 Zrotation Yrotation
				JOINT RightWrist
				{
					OFFSET 0.000000 -0.264825 0.000000 
					CHANNELS 2 Zrotation Xrotation
					End Site
					{
						OFFSET 0.006600 -0.176220 0.000990 
					}
				}
			}
		}
		JOINT LeftShoulder
		{
			OFFSET 0.019635 0.377685 -0.194865 
			CHANNELS 3 Zrotation Xrotation Yrotation
			JOINT LeftElbow
			{
				OFFSET 0.000000 -0.243375 0.000000 
				CHANNELS 2 Zrotation Yrotation
				JOINT LeftWrist
				{
					OFFSET 0.000000 -0.264825 0.000000 
					CHANNELS 2 Zrotation Xrotation
					End Site
					{
						OFFSET 0.006600 -0.176220 -0.000990 
					}
				}
			}
		}
	}
	JOINT RightHip
	{
		OFFSET 0.052140 -0.069960 0.075570 
		CHANNELS 3 Zrotation Xrotation Yrotation
		JOINT RightKnee
		{
			OFFSET 0.000000 -0.402270 0.000000 
			CHANNELS 1 Zrotation
			JOINT RightAnkle
			{
				OFFSET 0.000000 -0.404085 0.000000 
				CHANNELS 3 Zrotation Xrotation Yrotation
				End Site
				{
					OFFSET 0.204105 -0.089430 0.008415 
				}
			}
		}
	}
	JOINT LeftHip
	{
		OFFSET 0.052140 -0.069960 -0.075570 
		CHANNELS 3 Zrotation Xrotation Yrotation
		JOINT LeftKnee
		{
			OFFSET 0.000000 -0.402270 0.000000 
			CHANNELS 1 Zrotation
			JOINT LeftAnkle
			{
				OFFSET 0.000000 -0.404085 0.000000 
				CHANNELS 3 Zrotation Xrotation Yrotation
				End Site
				{
					OFFSET 0.204105 -0.089430 -0.008415 
				}
			}
		}
	}
}
MOTION
Frames: 20
Frame Time: 0.02
0.00061 0.95043 -0.01524 180.08655 0 -3.90053 3.26952 5.49523 2.21643 -27.03135 -1.95635 -1.115 0.93111 -9.29014 10.83549 99.09253 108.36422 -73.89611 -6.11375 10.58522 16.57228 -10.25837 70.88036 -58.27773 -17.9211 -1.05332 -0.88024 1.24034 2.07307 -22.8239 4.93251 -5.3614 -7.57056 -3.10962 4.91441 -7.44246 -7.35524 8.58805 7.37418 9.57264
0.00122 0.95009 -0.00999 179.46356 0 -3.82699 3.06291 5.43723 2.26654 -27.83912 -1.70006 -0.82112 2.45142 -9.57757 10.8384 98.14263 108.45994 -73.88197 -6.11462 11.66044 16.29403 -10.91829 70.68911 -58.79132 -17.89921 -0.91454 0.41771 0.78759 2.31159 -24.86417 4.76128 -5.10062 -6.90814 -3.24249 4.53997 -6.97978 -7.20551 8.64454 7.36409 9.53156
0.00209 0.94963 -0.00464 178.82304 0 -3.73074 2.7991 5.34588 2.3589 -28.56006 -1.46669 -0.49434 3.98336 -9.87309 10.87442 96.83879 108.83141 -73.87231 -6.15505 12.76655 16.07157 -11.75328 70.51549 -59.45597 -17.90019 -0.73895 1.92632 0.32496 2.6279 -27.21817 4.52143 -4.8123 -6.22635 -3.36981 4.14678 -6.5207 -7.02659 8.7021 7.33695 9.46015
0.00287 0.94923 0.00063 178.19254 0 -3.64622 2.55639 5.26993 2.43117 -29.31041 -1.23424 -0.19728 5.46726 -10.1431 10.9032 95.75672 108.95188 -73.88911 -6.19039 13.84223 15.85086 -12.50202 70.34763 -60.04209 -17.8979 -0.58373 3.35914 -0.12151 2.91915 -29.44899 4.28497 -4.53548 -5.55531 -3.49597 3.76609 -6.06389 -6.86322 8.75722 7.31909 9.40531
0.00354 0.94881 0.0061 177.54848 0 -3.55358 2.33413 5.19087 2.50911 -30.11182 -0.95331 0.16322 7.15327 -10.50464 10.90352 94.41009 109.64079 -73.79907 -6.18301 15.00008 15.51655 -13.28447 70.12159 -60.67294 -17.8637 -0.41337 4.71807 -0.62006 3.17337 -31.61662 4.15616 -4.26012 -4.87093 -3.63913 3.36599 -5.58689 -6.68693 8.82031 7.29432 9.33788
0.0045 0.94841 0.01115 176.93276 0 -3.47428 2.05651 5.11146 2.58324 -30.78244 -0.77714 0.40028 8.41398 -10.68335 10.96684 93.53255 109.18249 -73.91545 -6.26223 15.98935 15.42974 -14.03803 70.01904 -61.24385 -17.9005 -0.26594 6.2705 -1.01033 3.51634 -33.97044 3.79982 -3.97797 -4.21441 -3.74483 3.00435 -5.15525 -6.53255 8.86738 7.27995 9.2895
0.00626 0.94805 0.01513 176.37043 0 -3.42511 1.63124 5.03566 2.65243 -31.11925 -0.9084 0.27222 8.48166 -10.28455 11.22447 94.04377 105.66951 -74.74405 -6.66083 16.50251 16.03785 -14.64557 70.27686 -61.63047 -18.14795 -0.18809 8.38411 -1.11205 4.13989 -36.91539 2.7144 -3.66291 -3.60731 -3.75082 2.73535 -4.83527 -6.43727 8.86738 7.29988 9.30472
0.00828 0.94772 0.01867 175.84311 0 -3.39256 1.15398 4.96164 2.71332 -31.3252 -1.14042 0.02149 8.12045 -9.71317 11.5379 95.03741 100.96055 -75.75018 -7.12807 16.84344 16.88843 -15.22083 70.65444 -61.94781 -18.46311 -0.13508 10.66897 -1.10171 4.84002 -40.00509 1.42199 -3.34606 -3.036 -3.71891 2.50932 -4.56352 -6.3668 8.85177 7.33065 9.33954
0.01013 0.9474 0.02234 175.31905 0 -3.36062 0.70594 4.88931 2.76746 -31.58584 -1.31094 -0.16291 7.96282 -9.26715 11.80801 95.80912 96.67136 -76.5853 -7.50431 17.26358 17.61204 -15.82571 70.9617 -62.28494 -18.73421 -0.07237 12.82504 -1.13415 5.46872 -42.93033 0.3041 -3.04377 -2.46871 -3.70235 2.27553 -4.27845 -6.29119 8.84492 7.35561 9.36338
0.01224 0.94697 0.02631 174.71294 0 -3.29349 0.23151 4.80494 2.86736 -31.86353 -1.5479 -0.39103 7.76996 -8.62611 12.15879 96.58692 92.89456 -77.81556 -8.13401 17.68188 18.40931 -16.37559 71.33579 -62.67736 -19.06097 -0.00146 15.20842 -1.20184 6.25347 -46.29355 -1.14679 -2.68221 -1.81183 -3.6926 1.99098 -3.95733 -6.18948 8.83082 7.38376 9.39539
0.01385 0.94678 0.02955 174.28685 0 -3.30381 -0.19857 4.74686 2.86959 -32.07605 -1.67088 -0.55734 7.54773 -8.34675 12.34979 97.46216 87.78803 -78.24782 -8.25213 18.06164 19.10886 -17.0277 71.59997 -62.93543 -19.28907 0.04571 17.15033 -1.16873 6.732 -48.76181 -1.9637 -2.44436 -1.35438 -3.66087 1.82312 -3.72247 -6.14736 8.8284 7.40801 9.41483
0.01414 0.94723 0.03094 174.34432 0 -3.52457 -0.50124 4.75809 2.60312 -32.1381 -1.4481 -0.52595 7.35461 -9.13722 12.1248 98.5686 79.11641 -76.56021 -6.94082 18.38516 19.48854 -17.98809 71.52189 -62.84494 -19.21512 0.03578 17.88062 -0.88988 6.33302 -48.83404 -0.88142 -2.54537 -1.40332 -3.56799 1.9626 -3.7164 -6.27322 8.85954 7.41963 9.40039
0.0139 0.94792 0.03159 174.58244 0 -3.82248 -0.75554 4.79633 2.23905 -32.14005 -1.10833 -0.42778 7.14624 -10.29187 11.72973 99.74328 69.20452 -74.02703 -5.11599 18.67419 19.75924 -19.04758 71.3305 -62.61976 -19.04164 0.00219 18.15064 -0.51245 5.6263 -47.97996 0.82803 -2.7712 -1.65763 -3.4562 2.2188 -3.79501 -6.45672 8.90348 7.42706 9.37191
0.01385 0.9485 0.03254 174.74161 0 -4.08502 -1.0268 4.82437 1.9196 -32.17144 -0.82606 -0.35832 6.94049 -11.26121 11.38681 100.83596 59.95114 -71.81356 -3.5211 18.97351 20.07377 -20.04967 71.19742 -62.45197 -18.92248 -0.02229 18.59769 -0.17669 5.06748 -47.47375 2.18655 -2.94272 -1.84238 -3.35939 2.42472 -3.83329 -6.60757 8.94317 7.43579 9.34608
0.01404 0.94909 0.03365 174.89003 0 -4.35031 -1.32183 4.84406 1.597 -32.18883 -0.52854 -0.29983 6.73547 -12.30947 11.15176 102.16055 50.15953 -69.93054 -1.92707 19.28944 20.42188 -21.10539 71.04077 -62.29832 -18.76828 -0.04068 19.1857 0.14981 4.4733 -47.27474 3.81626 -3.10591 -1.93141 -3.23403 2.62106 -3.88109 -6.78595 8.97555 7.44676 9.33589
0.0136 0.94971 0.03424 175.10164 0 -4.62689 -1.55427 4.88708 1.26009 -32.22336 -0.23427 -0.20131 6.53405 -13.2804 10.65121 103.01201 41.3306 -67.09134 -0.22851 19.56501 20.66972 -22.07025 70.90349 -62.0837 -18.66132 -0.07705 19.36964 0.51748 3.88385 -46.22235 5.03252 -3.31368 -2.26384 -3.16444 2.86375 -3.9285 -6.92109 9.0266 7.45278 9.29049
0.01159 0.95039 0.03362 175.45748 0 -4.92521 -1.63321 4.99244 0.88853 -32.31597 0.0276 -0.00592 6.32088 -13.96384 9.45768 102.53951 34.40496 -62.39885 1.80977 19.73629 20.6768 -22.78533 70.85758 -61.73732 -18.71992 -0.15712 18.53961 0.97483 3.33652 -42.96771 4.95785 -3.63546 -3.25482 -3.25097 3.21239 -3.95395 -6.91702 9.12463 7.43877 9.1432
0.00896 0.95107 0.03248 175.86785 0 -5.23048 -1.64908 5.11974 0.50951 -32.42919 0.28157 0.22748 6.11856 -14.55476 8.00406 101.58696 28.67174 -56.68374 3.9056 19.86898 20.58361 -23.40035 70.83262 -61.334 -18.82749 -0.25433 17.32014 1.46954 2.81181 -38.90013 4.4466 -3.99416 -4.47661 -3.39471 3.60231 -3.97573 -6.86891 9.24146 7.42122 8.96242
0.00657 0.95173 0.03154 176.24403 0 -5.5262 -1.68878 5.23374 0.14642 -32.53639 0.53647 0.44248 5.93034 -15.17919 6.66858 100.85139 23.12178 -51.03044 5.8561 20.0214 20.5291 -24.04544 70.79075 -60.95451 -18.90476 -0.34379 16.28492 1.94661 2.30793 -35.24997 4.1324 -4.32147 -5.56855 -3.51436 3.9687 -3.99924 -6.8439 9.35055 7.41013 8.80213
0.00432 0.95248 0.03076 176.6665 0 -5.85127 -1.74762 5.36179 -0.273 -32.62777 0.80723 0.66486 5.66176 -15.85295 5.32233 100.12056 14.5601 -46.96794 8.31645 20.16437 20.50064 -24.76149 70.77604 -60.57836 -19.01111 -0.43421 15.20232 2.43032 1.66614 -31.36027 3.842 -4.71338 -6.77318 -3.62621 4.35892 -4.02605 -6.80569 9.45621 7.37854 8.61891
